<svg xmlns="http://www.w3.org/2000/svg" width="301.143" height="301.105" viewBox="0 0 301.143 301.105">
  <g id="ic_darvis" transform="translate(-2693 -3508.449)">
    <path id="Subtraction_1" data-name="Subtraction 1" d="M150.669,301.1h-.014a151.211,151.211,0,0,1-31.71-3.376l-1.276-.258-2.036-.511-1.658-.378-1.783-.511-1.783-.511-1.658-.507-2.045-.64-1.525-.511-2.17-.76-1.276-.387-2.294-.76-1.023-.387-2.547-.889-.894-.382-2.672-1.147-.64-.253-2.805-1.281-.511-.253-2.805-1.271-.378-.263-2.93-1.4H81.6a151.449,151.449,0,0,1-57.239-52.015l13.768-8.029A134.589,134.589,0,0,0,76.75,263.176c-3.062-13.165-5.518-24.591-7.518-34.032l-28.684-6.122,2.036-1.147L70.5,205.684l22.051-12.87a71.509,71.509,0,0,0,115.749,0l22.184,12.875L255.6,220.222l4.846,2.8-28.426,6.122c-1.85,9.223-4.157,19.488-6.6,30.357l-.8,3.551a134.407,134.407,0,0,0,38.629-38.624l13.768,8.029A150.674,150.674,0,0,1,150.669,301.1ZM111.8,236.92c1.115,9.456,2.319,19.917,3.593,30.992l.015.13.061.534q.694,6.03,1.434,12.45a135.652,135.652,0,0,0,67.428,0c1.687-14.463,3.362-29.3,4.975-44.106a251.823,251.823,0,0,1-38.752,3.009A251.872,251.872,0,0,1,111.8,236.92Zm-91.529-10.7,0,0a150.819,150.819,0,0,1,0-151.057L35.2,83.688a133.573,133.573,0,0,0,0,133.861l-14.916,8.667Zm260.569,0,0,0-14.916-8.667a133.472,133.472,0,0,0,0-133.723l14.92-8.669a150.685,150.685,0,0,1,0,151.057ZM150.558,214.869a64.249,64.249,0,1,1,45.434-18.821A63.822,63.822,0,0,1,150.558,214.869Zm-18.722-96.734c-1.727,0-2.758,1.257-2.758,3.363,0,.9.093,15,.184,28.636.087,13.07.185,27.883.185,28.805a2.381,2.381,0,0,0,2.658,2.621,10.285,10.285,0,0,0,4.556-1.433c1.485-.8,45.287-26.331,45.728-26.588.025-.018,2.559-1.859,2.409-3.891-.08-1.076-.89-2.018-2.409-2.8-5.214-2.673-46.412-26.959-47.248-27.634A6.849,6.849,0,0,0,131.836,118.135Zm124.019,93.542,0,0-14.906-8.667a104.535,104.535,0,0,0,0-104.657l14.911-8.665a122.141,122.141,0,0,1,0,121.986ZM45.39,211.548l0,0a121.744,121.744,0,0,1,0-121.857l14.8,8.665.12-.124a104.513,104.513,0,0,0,0,104.657l-14.911,8.662Zm24.99-14.529,0,0a92.669,92.669,0,0,1,0-92.8l14.911,8.545a75.465,75.465,0,0,0,0,75.591l-14.906,8.667Zm160.362,0,0,0-14.906-8.538a75.473,75.473,0,0,0,0-75.6l14.911-8.669a92.669,92.669,0,0,1,0,92.8Zm-138.056-88.6,0,0L67.7,93.892,45.4,81.012,24.228,68.778A151.623,151.623,0,0,1,81.6,16.509h.511l2.934-1.4.378-.263,2.805-1.271.511-.253,2.805-1.271.636-.258,2.676-1.152.894-.382,2.547-.889,1.023-.387,2.294-.889,1.276-.382,2.165-.511,1.529-.511,2.036-.636,1.658-.511,3.57-1.013,1.658-.387,2.041-.5,1.276-.267A150.668,150.668,0,0,1,276.893,68.653L258.536,79.358,233.422,93.892l-24.986,14.526a71.516,71.516,0,0,0-115.748,0ZM224.624,38.182c2.2,9.694,4.391,19.644,6.5,29.573l30.6,6.887A134.7,134.7,0,0,0,224.624,38.182ZM76.75,38.058A134.751,134.751,0,0,0,39.526,74.388l30.72-6.758C72.4,57.526,74.586,47.575,76.75,38.058Zm73.813,18.384A249.678,249.678,0,0,1,188.805,59.6c-.936-8.7-2.019-18.123-3.165-28.1q-.631-5.489-1.294-11.29a135.582,135.582,0,0,0-67.437,0c-1.935,15.87-3.4,28.387-4.593,39.389A249.733,249.733,0,0,1,150.563,56.442Z" transform="translate(2693 3508.449)" fill="#fff"/>
  </g>
</svg>
